# Blender v2.82 (sub 7) OBJ File: 'Wooden Nickel.blend'
# www.blender.org
mtllib Wooden Nickel.mtl
o Cylinder_Cylinder.001
v -0.008368 -0.177225 -1.008049
v -0.011642 0.159341 -1.011199
v 0.120517 -0.173737 -0.996747
v 0.118089 0.163783 -0.999083
v 0.246653 -0.171212 -0.970543
v 0.245062 0.167288 -0.972073
v 0.367757 -0.170016 -0.930130
v 0.367110 0.169455 -0.930870
v 0.482423 -0.170000 -0.876307
v 0.483391 0.170020 -0.876337
v 0.590741 -0.169836 -0.809017
v 0.592664 0.170592 -0.809017
v 0.691194 -0.168860 -0.728969
v 0.694066 0.172091 -0.728969
v 0.781933 -0.167161 -0.637424
v 0.785772 0.174322 -0.637424
v 0.861189 -0.164970 -0.535827
v 0.866005 0.177044 -0.535827
v 0.927312 -0.162557 -0.425779
v 0.933100 0.179976 -0.425779
v 0.978807 -0.160220 -0.309017
v 0.985539 0.182809 -0.309017
v 1.014379 -0.158256 -0.187381
v 1.021915 0.185242 -0.187403
v 1.032588 -0.156825 -0.062921
v 1.040254 0.187187 -0.063121
v 1.029493 -0.155953 0.062197
v 1.039516 0.188385 0.061810
v 1.001107 -0.155776 0.186036
v 1.018823 0.188583 0.185455
v 0.953501 -0.156437 0.306696
v 0.977509 0.187422 0.305918
v 0.894371 -0.158577 0.422345
v 0.920369 0.184509 0.421367
v 0.830052 -0.161669 0.531239
v 0.850864 0.180317 0.530064
v 0.757930 -0.163922 0.631756
v 0.769150 0.175729 0.630388
v 0.673001 -0.164748 0.722408
v 0.673769 0.172580 0.720862
v 0.571565 -0.163926 0.801863
v 0.568167 0.173040 0.799321
v 0.460997 -0.160954 0.868734
v 0.453858 0.180613 0.862944
v 0.345002 -0.154942 0.921434
v 0.334953 0.190484 0.912974
v 0.226452 -0.149462 0.960310
v 0.215094 0.197152 0.950812
v 0.106319 -0.146187 0.985211
v 0.096429 0.197162 0.977063
v -0.014803 -0.144686 0.995129
v -0.021993 0.193082 0.989728
v -0.136189 -0.143672 0.988679
v -0.140335 0.188283 0.986494
v -0.255141 -0.144521 0.966262
v -0.258259 0.186019 0.965484
v -0.369960 -0.147546 0.928430
v -0.373453 0.184437 0.927850
v -0.479577 -0.152268 0.875713
v -0.483499 0.181341 0.875325
v -0.582499 -0.158170 0.808886
v -0.586902 0.177164 0.808686
v -0.677299 -0.164689 0.728968
v -0.682242 0.172435 0.728946
v -0.761938 -0.171378 0.637423
v -0.767925 0.167670 0.637423
v -0.831359 -0.177105 0.535826
v -0.841849 0.163312 0.535826
v -0.879731 -0.180725 0.425778
v -0.901954 0.160681 0.425778
v -0.913201 -0.182131 0.309016
v -0.945653 0.160349 0.309016
v -0.939059 -0.181309 0.187380
v -0.976450 0.161353 0.187308
v -0.962808 -0.179772 0.062210
v -0.996593 0.161886 0.061547
v -0.979088 -0.179175 -0.065110
v -1.003648 0.161219 -0.066473
v -0.979420 -0.179616 -0.192351
v -0.993198 0.159373 -0.194568
v -0.956720 -0.181113 -0.317382
v -0.966929 0.156544 -0.320447
v -0.915761 -0.183407 -0.437902
v -0.925723 0.153021 -0.441785
v -0.860123 -0.186119 -0.551592
v -0.870136 0.149163 -0.556278
v -0.790332 -0.188865 -0.656256
v -0.801072 0.145421 -0.661685
v -0.707241 -0.190978 -0.749855
v -0.718468 0.142716 -0.755904
v -0.611427 -0.191685 -0.830606
v -0.622344 0.141692 -0.836967
v -0.504088 -0.190823 -0.897105
v -0.513322 0.142750 -0.903222
v -0.387589 -0.188517 -0.948424
v -0.394769 0.145600 -0.953939
v -0.264809 -0.185149 -0.984091
v -0.270082 0.149696 -0.988850
v -0.137620 -0.181206 -1.003935
v -0.141736 0.154463 -1.007895
v -0.000211 0.170098 -0.001344
v 0.001470 -0.169296 -0.000514
vt 0.000024 0.739989
vt 0.054169 0.739989
vt 0.054169 0.759988
vt 0.000024 0.759988
vt 0.054169 0.779987
vt 0.000024 0.779987
vt 0.054169 0.799986
vt 0.000023 0.799986
vt 0.054169 0.819985
vt 0.000023 0.819985
vt 0.054169 0.839984
vt 0.000023 0.839984
vt 0.054169 0.859983
vt 0.000023 0.859983
vt 0.054169 0.879982
vt 0.000023 0.879982
vt 0.054169 0.899981
vt 0.000023 0.899981
vt 0.054169 0.919981
vt 0.000023 0.919981
vt 0.054169 0.939980
vt 0.000023 0.939980
vt 0.054169 0.959979
vt 0.000023 0.959979
vt 0.054169 0.979978
vt 0.000023 0.979978
vt 0.054169 0.999977
vt 0.000023 0.999977
vt 0.000023 0.000023
vt 0.054169 0.000023
vt 0.054169 0.020022
vt 0.000023 0.020022
vt 0.054169 0.040021
vt 0.000023 0.040022
vt 0.054169 0.060021
vt 0.000023 0.060021
vt 0.054169 0.080020
vt 0.000023 0.080020
vt 0.054169 0.100019
vt 0.000023 0.100019
vt 0.054169 0.120018
vt 0.000023 0.120018
vt 0.054169 0.140017
vt 0.000023 0.140017
vt 0.054169 0.160016
vt 0.000023 0.160016
vt 0.054169 0.180015
vt 0.000023 0.180015
vt 0.054169 0.200014
vt 0.000023 0.200014
vt 0.054169 0.220013
vt 0.000024 0.220013
vt 0.054169 0.240012
vt 0.000024 0.240012
vt 0.054169 0.260011
vt 0.000024 0.260011
vt 0.054169 0.280011
vt 0.000024 0.280011
vt 0.054169 0.300010
vt 0.000024 0.300010
vt 0.054169 0.320009
vt 0.000024 0.320009
vt 0.054169 0.340008
vt 0.000024 0.340008
vt 0.054169 0.360007
vt 0.000024 0.360007
vt 0.054169 0.380006
vt 0.000024 0.380006
vt 0.054169 0.400005
vt 0.000024 0.400005
vt 0.054169 0.420004
vt 0.000024 0.420004
vt 0.054169 0.440003
vt 0.000024 0.440003
vt 0.054169 0.460002
vt 0.000024 0.460002
vt 0.054169 0.480001
vt 0.000024 0.480001
vt 0.054169 0.500000
vt 0.000024 0.500000
vt 0.054169 0.520000
vt 0.000024 0.520000
vt 0.054169 0.539999
vt 0.000024 0.539999
vt 0.054169 0.559998
vt 0.000024 0.559998
vt 0.054169 0.579997
vt 0.000024 0.579997
vt 0.054169 0.599996
vt 0.000024 0.599996
vt 0.054169 0.619995
vt 0.000024 0.619995
vt 0.054169 0.639994
vt 0.000024 0.639994
vt 0.054169 0.659993
vt 0.000024 0.659993
vt 0.054169 0.679992
vt 0.000024 0.679992
vt 0.054169 0.699991
vt 0.000024 0.699991
vt 0.409309 0.958462
vt 0.353560 0.940348
vt 0.525390 0.506354
vt 0.054169 0.719990
vt 0.000024 0.719990
vt 0.583893 0.043261
vt 0.641472 0.054245
vt 0.525391 0.506354
vt 0.885045 0.803885
vt 0.844919 0.846616
vt 0.947739 0.307611
vt 0.969318 0.362112
vt 0.525390 0.039581
vt 0.583892 0.043261
vt 0.103042 0.307612
vt 0.131281 0.256245
vt 0.165737 0.803886
vt 0.131282 0.756464
vt 0.697221 0.940348
vt 0.641472 0.958462
vt 0.991242 0.535662
vt 0.983896 0.593818
vt 0.750260 0.097317
vt 0.799752 0.128726
vt 0.251028 0.128727
vt 0.300521 0.097318
vt 0.066886 0.593819
vt 0.059539 0.535663
vt 0.466889 0.969445
vt 0.919500 0.756463
vt 0.919500 0.256244
vt 0.466888 0.043261
vt 0.081463 0.362113
vt 0.205863 0.846617
vt 0.750260 0.915390
vt 0.991242 0.477044
vt 0.697221 0.072359
vt 0.205862 0.166091
vt 0.081464 0.650595
vt 0.525391 0.973126
vt 0.947739 0.705095
vt 0.885045 0.208821
vt 0.300521 0.915390
vt 0.251028 0.883980
vt 0.409308 0.054246
vt 0.066886 0.418890
vt 0.799753 0.883980
vt 0.983896 0.418889
vt 0.641472 0.054245
vt 0.165736 0.208822
vt 0.103042 0.705096
vt 0.583893 0.969445
vt 0.969318 0.650594
vt 0.844918 0.166091
vt 0.353560 0.072359
vt 0.059539 0.477045
vt 0.969318 0.362113
vt 0.983896 0.418889
vt 0.844918 0.846617
vt 0.799752 0.883981
vt 0.300521 0.915390
vt 0.251029 0.883981
vt 0.059539 0.477045
vt 0.066886 0.418889
vt 0.353560 0.072359
vt 0.409309 0.054245
vt 0.844918 0.166091
vt 0.885045 0.208821
vt 0.969318 0.650594
vt 0.947739 0.705096
vt 0.525391 0.973126
vt 0.466889 0.969446
vt 0.103042 0.705096
vt 0.081463 0.650594
vt 0.165736 0.208822
vt 0.205863 0.166091
vt 0.697221 0.072359
vt 0.991242 0.477045
vt 0.750260 0.915390
vt 0.205863 0.846617
vt 0.081463 0.362113
vt 0.466888 0.043261
vt 0.919500 0.256244
vt 0.919500 0.756463
vt 0.409310 0.958462
vt 0.066886 0.593818
vt 0.251028 0.128727
vt 0.697221 0.940348
vt 0.641473 0.958462
vt 0.750260 0.097317
vt 0.991242 0.535663
vt 0.165736 0.803886
vt 0.103042 0.307611
vt 0.525391 0.039581
vt 0.947739 0.307611
vt 0.885045 0.803886
vt 0.353561 0.940348
vt 0.059539 0.535663
vt 0.300521 0.097317
vt 0.799753 0.128726
vt 0.983896 0.593818
vt 0.583893 0.969445
vt 0.131282 0.756463
vt 0.131281 0.256244
vn 0.0418 -0.6988 -0.7141
vn -0.0016 0.6875 -0.7262
vn 0.0867 0.6908 -0.7178
vn 0.1220 -0.6965 -0.7071
vn 0.1747 0.6933 -0.6991
vn 0.1983 -0.6946 -0.6915
vn 0.2608 0.6952 -0.6698
vn 0.2709 -0.6940 -0.6671
vn 0.3404 0.6939 -0.6346
vn 0.3427 -0.6952 -0.6319
vn 0.4104 0.6923 -0.5935
vn 0.4148 -0.6963 -0.5857
vn 0.4736 0.6920 -0.5447
vn 0.4828 -0.6967 -0.5305
vn 0.5324 0.6916 -0.4880
vn 0.5436 -0.6969 -0.4678
vn 0.5862 0.6912 -0.4227
vn 0.5966 -0.6968 -0.3981
vn 0.6340 0.6907 -0.3478
vn 0.6415 -0.6965 -0.3214
vn 0.6743 0.6901 -0.2629
vn 0.6774 -0.6961 -0.2378
vn 0.7055 0.6888 -0.1668
vn 0.7037 -0.6953 -0.1459
vn 0.7235 0.6881 -0.0554
vn 0.7204 -0.6923 -0.0410
vn 0.7247 0.6851 0.0732
vn 0.7178 -0.6917 0.0792
vn 0.7060 0.6790 0.2010
vn 0.6850 -0.7026 0.1925
vn 0.6704 0.6778 0.3016
vn 0.6461 -0.7125 0.2736
vn 0.6332 0.6782 0.3730
vn 0.6150 -0.7174 0.3273
vn 0.5912 0.6806 0.4327
vn 0.5868 -0.7115 0.3864
vn 0.5360 0.6847 0.4937
vn 0.5427 -0.7001 0.4640
vn 0.4712 0.6911 0.5480
vn 0.4769 -0.6904 0.5440
vn 0.4171 0.6921 0.5890
vn 0.3946 -0.6890 0.6078
vn 0.3606 0.7041 0.6117
vn 0.3092 -0.6848 0.6598
vn 0.2880 0.7162 0.6356
vn 0.2329 -0.6774 0.6977
vn 0.1953 0.7235 0.6621
vn 0.1691 -0.6735 0.7196
vn 0.0932 0.7177 0.6901
vn 0.1000 -0.6740 0.7319
vn -0.0070 0.7070 0.7071
vn 0.0132 -0.6772 0.7356
vn -0.0992 0.6968 0.7103
vn -0.0814 -0.6794 0.7292
vn -0.1875 0.6967 0.6924
vn -0.1700 -0.6815 0.7118
vn -0.2790 0.6982 0.6593
vn -0.2520 -0.6841 0.6844
vn -0.3683 0.6959 0.6165
vn -0.3294 -0.6873 0.6474
vn -0.4476 0.6931 0.5650
vn -0.4020 -0.6910 0.6007
vn -0.5166 0.6902 0.5066
vn -0.4690 -0.6946 0.5454
vn -0.5797 0.6861 0.4395
vn -0.5344 -0.6975 0.4773
vn -0.6417 0.6772 0.3601
vn -0.5980 -0.7024 0.3861
vn -0.6952 0.6637 0.2759
vn -0.6366 -0.7196 0.2774
vn -0.7247 0.6578 0.2051
vn -0.6507 -0.7363 0.1856
vn -0.7376 0.6575 0.1538
vn -0.6558 -0.7441 0.1270
vn -0.7453 0.6595 0.0979
vn -0.6716 -0.7361 0.0837
vn -0.7472 0.6644 0.0122
vn -0.6926 -0.7211 0.0178
vn -0.7320 0.6743 -0.0977
vn -0.7041 -0.7059 -0.0767
vn -0.7062 0.6777 -0.2048
vn -0.6871 -0.7058 -0.1722
vn -0.6736 0.6765 -0.2977
vn -0.6578 -0.7083 -0.2561
vn -0.6318 0.6739 -0.3830
vn -0.6193 -0.7093 -0.3365
vn -0.5797 0.6697 -0.4642
vn -0.5661 -0.7111 -0.4170
vn -0.5146 0.6666 -0.5393
vn -0.4959 -0.7123 -0.4967
vn -0.4370 0.6662 -0.6043
vn -0.4104 -0.7119 -0.5699
vn -0.3516 0.6702 -0.6536
vn -0.3170 -0.7102 -0.6286
vn -0.2652 0.6751 -0.6884
vn -0.2234 -0.7075 -0.6704
vn -0.1781 0.6796 -0.7116
vn -0.1317 -0.7043 -0.6976
vn -0.0129 0.9998 -0.0137
vn -0.0900 0.6837 -0.7241
vn -0.0429 -0.7014 -0.7114
vn 0.0105 -0.9998 0.0129
usemtl Material.001
s 1
f 1/1/1 2/2/2 4/3/3 3/4/4
f 3/4/4 4/3/3 6/5/5 5/6/6
f 5/6/6 6/5/5 8/7/7 7/8/8
f 7/8/8 8/7/7 10/9/9 9/10/10
f 9/10/10 10/9/9 12/11/11 11/12/12
f 11/12/12 12/11/11 14/13/13 13/14/14
f 13/14/14 14/13/13 16/15/15 15/16/16
f 15/16/16 16/15/15 18/17/17 17/18/18
f 17/18/18 18/17/17 20/19/19 19/20/20
f 19/20/20 20/19/19 22/21/21 21/22/22
f 21/22/22 22/21/21 24/23/23 23/24/24
f 23/24/24 24/23/23 26/25/25 25/26/26
f 25/26/26 26/25/25 28/27/27 27/28/28
f 27/29/28 28/30/27 30/31/29 29/32/30
f 29/32/30 30/31/29 32/33/31 31/34/32
f 31/34/32 32/33/31 34/35/33 33/36/34
f 33/36/34 34/35/33 36/37/35 35/38/36
f 35/38/36 36/37/35 38/39/37 37/40/38
f 37/40/38 38/39/37 40/41/39 39/42/40
f 39/42/40 40/41/39 42/43/41 41/44/42
f 41/44/42 42/43/41 44/45/43 43/46/44
f 43/46/44 44/45/43 46/47/45 45/48/46
f 45/48/46 46/47/45 48/49/47 47/50/48
f 47/50/48 48/49/47 50/51/49 49/52/50
f 49/52/50 50/51/49 52/53/51 51/54/52
f 51/54/52 52/53/51 54/55/53 53/56/54
f 53/56/54 54/55/53 56/57/55 55/58/56
f 55/58/56 56/57/55 58/59/57 57/60/58
f 57/60/58 58/59/57 60/61/59 59/62/60
f 59/62/60 60/61/59 62/63/61 61/64/62
f 61/64/62 62/63/61 64/65/63 63/66/64
f 63/66/64 64/65/63 66/67/65 65/68/66
f 65/68/66 66/67/65 68/69/67 67/70/68
f 67/70/68 68/69/67 70/71/69 69/72/70
f 69/72/70 70/71/69 72/73/71 71/74/72
f 71/74/72 72/73/71 74/75/73 73/76/74
f 73/76/74 74/75/73 76/77/75 75/78/76
f 75/78/76 76/77/75 78/79/77 77/80/78
f 77/80/78 78/79/77 80/81/79 79/82/80
f 79/82/80 80/81/79 82/83/81 81/84/82
f 81/84/82 82/83/81 84/85/83 83/86/84
f 83/86/84 84/85/83 86/87/85 85/88/86
f 85/88/86 86/87/85 88/89/87 87/90/88
f 87/90/88 88/89/87 90/91/89 89/92/90
f 89/92/90 90/91/89 92/93/91 91/94/92
f 91/94/92 92/93/91 94/95/93 93/96/94
f 93/96/94 94/95/93 96/97/95 95/98/96
f 95/98/96 96/97/95 98/99/97 97/100/98
f 8/101/7 6/102/5 101/103/99
f 97/100/98 98/99/97 100/104/100 99/105/101
f 99/105/101 100/104/100 2/2/2 1/1/1
f 59/106/60 61/107/62 102/108/102
f 26/109/25 24/110/23 101/103/99
f 44/111/43 42/112/41 101/103/99
f 62/113/61 60/114/59 101/103/99
f 80/115/79 78/116/77 101/103/99
f 98/117/97 96/118/95 101/103/99
f 18/119/17 16/120/15 101/103/99
f 36/121/35 34/122/33 101/103/99
f 54/123/53 52/124/51 101/103/99
f 72/125/71 70/126/69 101/103/99
f 90/127/89 88/128/87 101/103/99
f 10/129/9 8/101/7 101/103/99
f 28/130/27 26/109/25 101/103/99
f 46/131/45 44/111/43 101/103/99
f 64/132/63 62/113/61 101/103/99
f 82/133/81 80/115/79 101/103/99
f 100/134/100 98/117/97 101/103/99
f 20/135/19 18/119/17 101/103/99
f 38/136/37 36/121/35 101/103/99
f 56/137/55 54/123/53 101/103/99
f 74/138/73 72/125/71 101/103/99
f 92/139/91 90/127/89 101/103/99
f 12/140/11 10/129/9 101/103/99
f 30/141/29 28/130/27 101/103/99
f 48/142/47 46/131/45 101/103/99
f 4/143/3 2/144/2 101/103/99
f 66/145/65 64/132/63 101/103/99
f 84/146/83 82/133/81 101/103/99
f 2/144/2 100/134/100 101/103/99
f 22/147/21 20/135/19 101/103/99
f 40/148/39 38/136/37 101/103/99
f 58/149/57 56/137/55 101/103/99
f 76/150/75 74/138/73 101/103/99
f 94/151/93 92/139/91 101/103/99
f 14/152/13 12/140/11 101/103/99
f 32/153/31 30/141/29 101/103/99
f 50/154/49 48/142/47 101/103/99
f 68/155/67 66/145/65 101/103/99
f 86/156/85 84/146/83 101/103/99
f 6/102/5 4/143/3 101/103/99
f 24/110/23 22/147/21 101/103/99
f 42/112/41 40/148/39 101/103/99
f 60/114/59 58/149/57 101/103/99
f 78/116/77 76/150/75 101/103/99
f 96/118/95 94/151/93 101/103/99
f 16/120/15 14/152/13 101/103/99
f 34/122/33 32/153/31 101/103/99
f 52/124/51 50/154/49 101/103/99
f 70/126/69 68/155/67 101/103/99
f 88/128/87 86/156/85 101/103/99
f 77/157/78 79/158/80 102/108/102
f 95/159/96 97/160/98 102/108/102
f 15/161/16 17/162/18 102/108/102
f 33/163/34 35/164/36 102/108/102
f 51/165/52 53/166/54 102/108/102
f 69/167/70 71/168/72 102/108/102
f 87/169/88 89/170/90 102/108/102
f 7/171/8 9/172/10 102/108/102
f 25/173/26 27/174/28 102/108/102
f 43/175/44 45/176/46 102/108/102
f 61/107/62 63/177/64 102/108/102
f 79/158/80 81/178/82 102/108/102
f 97/160/98 99/179/101 102/108/102
f 17/162/18 19/180/20 102/108/102
f 35/164/36 37/181/38 102/108/102
f 53/166/54 55/182/56 102/108/102
f 71/168/72 73/183/74 102/108/102
f 89/170/90 91/184/92 102/108/102
f 9/172/10 11/185/12 102/108/102
f 27/174/28 29/186/30 102/108/102
f 45/176/46 47/187/48 102/108/102
f 1/188/1 3/189/4 102/108/102
f 63/177/64 65/190/66 102/108/102
f 81/178/82 83/191/84 102/108/102
f 99/179/101 1/188/1 102/108/102
f 19/180/20 21/192/22 102/108/102
f 37/181/38 39/193/40 102/108/102
f 55/182/56 57/194/58 102/108/102
f 73/183/74 75/195/76 102/108/102
f 91/184/92 93/196/94 102/108/102
f 11/185/12 13/197/14 102/108/102
f 29/186/30 31/198/32 102/108/102
f 47/187/48 49/199/50 102/108/102
f 65/190/66 67/200/68 102/108/102
f 83/191/84 85/201/86 102/108/102
f 3/189/4 5/202/6 102/108/102
f 21/192/22 23/203/24 102/108/102
f 39/193/40 41/204/42 102/108/102
f 57/194/58 59/106/60 102/108/102
f 75/195/76 77/157/78 102/108/102
f 93/196/94 95/159/96 102/108/102
f 13/197/14 15/161/16 102/108/102
f 31/198/32 33/163/34 102/108/102
f 49/199/50 51/165/52 102/108/102
f 67/200/68 69/167/70 102/108/102
f 85/201/86 87/169/88 102/108/102
f 5/202/6 7/171/8 102/108/102
f 23/203/24 25/173/26 102/108/102
f 41/204/42 43/175/44 102/108/102
