# Blender v2.82 (sub 7) OBJ File: 'Lord of the pit.blend'
# www.blender.org
mtllib Lord of the pit.mtl
o Cube_Cube.001
v -0.641537 2.381867 0.708574
v -0.641537 3.618132 0.708574
v 0.641537 3.618132 -0.708574
v 0.641537 3.618132 0.708574
v -0.641537 3.618132 -0.708574
v -0.641537 2.381867 -0.708574
v 0.641537 2.381867 -0.708574
v 0.641537 2.381867 0.708574
v -0.641537 0.291426 -0.708574
v -0.641537 0.291426 0.708574
v -0.641537 10.708574 0.708574
v -0.641537 10.708574 -0.708574
v 0.641537 0.291426 -0.708574
v 0.641537 0.291426 0.708574
v 0.641537 10.708574 -0.708574
v 0.641537 10.708574 0.708574
v -0.641537 3.618132 -3.104941
v -0.641537 2.381867 -3.104941
v 0.641537 3.618132 -3.104941
v 0.641537 2.381867 -3.104941
v -0.641537 2.381867 3.104941
v -0.641537 3.618132 3.104941
v 0.641537 3.618132 3.104941
v 0.641537 2.381867 3.104941
v -0.775768 0.203367 0.796634
v -0.707455 0.291426 0.708574
v -0.775768 10.796634 0.796634
v -0.707455 10.708574 0.708574
v -0.707455 0.291426 -0.708574
v -0.775768 0.203367 -0.796634
v -0.775768 10.796634 -0.796634
v -0.707455 10.708574 -0.708574
v 0.707455 0.291426 0.708574
v 0.775768 0.203367 0.796634
v 0.775768 10.796634 0.796634
v 0.707455 10.708574 0.708574
v 0.707455 0.291426 -0.708574
v 0.775768 0.203367 -0.796634
v 0.707455 10.708574 -0.708574
v 0.775768 10.796634 -0.796634
v -0.707455 3.618132 0.708574
v -0.775768 3.706192 0.796633
v -0.775768 3.706192 -0.796633
v -0.707455 3.618132 -0.708574
v 0.707455 3.618132 -0.708574
v 0.775768 3.706192 -0.796633
v 0.775768 3.706192 0.796633
v 0.707455 3.618132 0.708574
v -0.707455 2.381867 -0.708574
v -0.775768 2.293808 -0.796633
v 0.775768 2.293808 -0.796633
v 0.707455 2.381867 -0.708574
v 0.707455 2.381867 0.708574
v 0.775768 2.293808 0.796633
v -0.707455 3.618132 -3.104941
v -0.775768 3.706192 -3.193000
v 0.775768 3.706192 -3.193000
v 0.707455 3.618132 -3.104941
v -0.775768 2.293808 -3.193000
v -0.707455 2.381867 -3.104941
v 0.707455 2.381867 -3.104941
v 0.775768 2.293808 -3.193000
v -0.707455 2.381867 3.104941
v -0.775768 2.293808 3.193000
v -0.775768 3.706192 3.193000
v -0.707455 3.618132 3.104941
v 0.707455 3.618132 3.104941
v 0.775768 3.706192 3.193000
v 0.775768 2.293808 3.193000
v 0.707455 2.381867 3.104941
v -0.775768 2.293808 0.796633
v -0.707455 2.381867 0.708574
v -0.698494 2.090442 1.000000
v -0.775768 2.190052 0.900390
v -0.775768 0.099610 -0.900390
v -0.698494 0.000000 -1.000000
v -0.698494 0.000000 1.000000
v -0.775768 0.099610 0.900390
v -0.775768 3.809948 0.900390
v -0.698494 3.909558 1.000000
v -0.698494 11.000000 1.000000
v -0.775768 10.900390 0.900390
v -0.698494 11.000000 -1.000000
v -0.775768 10.900390 -0.900390
v -0.775768 2.190052 -0.900390
v -0.698494 2.090442 -1.000000
v 0.698494 2.090442 -1.000000
v 0.775768 2.190052 -0.900390
v 0.775768 0.099610 -0.900390
v 0.698494 0.000000 -1.000000
v 0.775768 0.099610 0.900390
v 0.698494 0.000000 1.000000
v 0.775768 10.900390 -0.900390
v 0.698494 11.000000 -1.000000
v 0.698494 11.000000 1.000000
v 0.775768 10.900390 0.900390
v 0.775768 2.190052 0.900390
v 0.698494 2.090442 1.000000
v -0.698494 3.909558 -1.000000
v -0.775768 3.809948 -0.900390
v 0.775768 3.809948 -0.900390
v 0.698494 3.909558 -1.000000
v 0.698494 3.909558 1.000000
v 0.775768 3.809948 0.900390
v -0.775768 3.809948 -3.296756
v -0.698494 3.909558 -3.396367
v -0.698494 2.090442 -3.396367
v -0.775768 2.190052 -3.296756
v 0.698494 3.909558 -3.396367
v 0.775768 3.809948 -3.296756
v 0.775768 2.190052 -3.296756
v 0.698494 2.090442 -3.396367
v -0.775768 2.190052 3.296756
v -0.698494 2.090442 3.396367
v -0.698494 3.909558 3.396367
v -0.775768 3.809948 3.296756
v 0.775768 3.809948 3.296756
v 0.698494 3.909558 3.396367
v 0.698494 2.090442 3.396367
v 0.775768 2.190052 3.296756
vt 0.304144 0.463996
vt 0.248229 0.553929
vt 0.244620 0.551690
vt 0.299692 0.462909
vt 0.219841 0.261212
vt 0.161691 0.587963
vt 0.156751 0.587495
vt 0.214155 0.262448
vt 0.445093 0.293642
vt 0.386737 0.183090
vt 0.390832 0.182044
vt 0.449656 0.293926
vt 0.268436 0.003501
vt 0.431131 0.007622
vt 0.370545 0.112470
vt 0.321675 0.106495
vt 0.385842 0.460137
vt 0.448471 0.563314
vt 0.440627 0.561482
vt 0.380246 0.461776
vt 0.205990 0.264437
vt 0.150937 0.587153
vt 0.097909 0.589577
vt 0.029187 0.256065
vt 0.448504 0.005231
vt 0.381719 0.115945
vt 0.376881 0.114311
vt 0.441142 0.007005
vt 0.225165 0.260014
vt 0.156398 0.161948
vt 0.160121 0.160588
vt 0.229928 0.259341
vt 0.150288 0.164037
vt 0.145422 0.165575
vt 0.090590 0.668675
vt 0.085907 0.590978
vt 0.091341 0.590305
vt 0.095486 0.669105
vt 0.380029 0.184718
vt 0.374727 0.185919
vt 0.372708 0.463720
vt 0.321443 0.468851
vt 0.318662 0.383122
vt 0.371129 0.376874
vt 0.423919 0.292868
vt 0.258282 0.286394
vt 0.318899 0.181863
vt 0.367886 0.187225
vt 0.149066 0.101282
vt 0.144644 0.099949
vt 0.206512 0.001783
vt 0.200003 0.003489
vt 0.088102 0.095824
vt 0.036609 0.000011
vt 0.042720 0.001821
vt 0.092901 0.094765
vt 0.308174 0.178667
vt 0.309095 0.109110
vt 0.314464 0.107906
vt 0.312950 0.180237
vt 0.439118 0.293410
vt 0.433170 0.293181
vt 0.382067 0.379841
vt 0.377213 0.378376
vt 0.167118 0.667026
vt 0.219651 0.996439
vt 0.213360 0.991897
vt 0.161598 0.667586
vt 0.388306 0.381786
vt 0.393286 0.383269
vt 0.173285 0.666409
vt 0.167594 0.588468
vt 0.173309 0.588955
vt 0.177943 0.665913
vt 0.455889 0.563816
vt 0.392575 0.458091
vt 0.396811 0.456692
vt 0.459462 0.561670
vt 0.009565 0.251665
vt 0.079485 0.591781
vt 0.074866 0.592437
vt 0.004734 0.250781
vt 0.235160 0.286947
vt 0.299284 0.388992
vt 0.295113 0.390472
vt 0.230095 0.286918
vt 0.085083 0.668259
vt 0.039978 0.983990
vt 0.034475 0.983210
vt 0.080077 0.668029
vt 0.015033 0.252883
vt 0.020833 0.254107
vt 0.306142 0.386705
vt 0.241727 0.286842
vt 0.248228 0.286708
vt 0.311589 0.385017
vt 0.225074 0.999111
vt 0.229928 0.998334
vt 0.154471 0.102914
vt 0.158563 0.103960
vt 0.082317 0.097117
vt 0.080671 0.156091
vt 0.076207 0.154251
vt 0.078665 0.097984
vt 0.245459 -0.000722
vt 0.302612 0.110587
vt 0.298519 0.111578
vt 0.242173 0.000963
vt 0.030815 -0.000722
vt 0.027927 0.000795
vt 0.301990 0.176567
vt 0.296987 0.174900
vt 0.387643 0.117958
vt 0.455484 0.004720
vt 0.459462 0.007107
vt 0.392147 0.119287
vt 0.212697 0.001204
vt 0.216268 0.003250
vt 0.086214 0.158345
vt 0.090523 0.160018
vt 0.534340 0.654013
vt 0.798997 0.053793
vt 0.918961 0.106690
vt 0.654304 0.706909
vt 0.536179 0.654824
vt 0.800836 0.054604
vt 0.920801 0.107501
vt 0.656144 0.707721
vt 0.490035 0.759477
vt 0.609999 0.812373
vt 0.488195 0.758665
vt 0.608159 0.811562
vt 0.410167 0.935626
vt 0.530132 0.988522
vt 0.412007 0.936437
vt 0.531971 0.989333
vt 0.287177 0.670030
vt 0.333322 0.565377
vt 0.857162 0.796356
vt 0.811017 0.901008
vt 0.285338 0.669218
vt 0.331482 0.564566
vt 0.859001 0.797167
vt 0.812856 0.901819
vt 0.138857 0.098464
vt 0.139067 0.167296
vt 0.095949 0.161788
vt 0.099353 0.093517
vt 0.252011 0.000174
vt 0.258904 0.002292
vt 0.429927 0.560920
vt 0.270741 0.551586
vt 0.051150 0.002806
vt 0.191125 0.004219
vt 0.058341 0.973288
vt 0.101543 0.669452
vt 0.154673 0.668214
vt 0.205519 0.988068
vt 0.254654 0.553552
vt 0.310088 0.465759
vt 0.314983 0.467213
vt 0.261479 0.552029
vt 0.045088 0.981385
vt 0.050982 0.977005
vn 0.0000 0.0000 1.0000
vn -1.0000 0.0000 0.0000
vn 0.0000 1.0000 0.0000
vn 0.0000 0.0000 -1.0000
vn 0.0000 -1.0000 0.0000
vn 1.0000 0.0000 0.0000
vn -0.7901 0.6130 0.0000
vn -0.7901 0.0000 -0.6130
vn -0.7901 -0.6129 0.0000
vn -0.7901 0.0000 0.6130
vn 0.7901 -0.0000 0.6130
vn 0.7901 0.6130 0.0000
vn 0.7901 -0.6129 0.0000
vn 0.7901 0.0000 -0.6130
vn 0.7901 0.0000 0.6129
vn 0.7901 -0.6130 0.0000
vn -0.7901 -0.6130 0.0000
usemtl Material.001
s off
f 37/1/1 52/2/1 7/3/1 13/4/1
f 43/5/2 31/6/2 84/7/2 100/8/2
f 72/9/3 63/10/3 21/11/3 1/12/3
f 103/13/3 80/14/3 115/15/3 118/16/3
f 30/17/2 50/18/2 85/19/2 75/20/2
f 99/21/4 83/22/4 94/23/4 102/24/4
f 42/25/2 65/26/2 116/27/2 79/28/2
f 44/29/5 55/30/5 17/31/5 5/32/5
f 56/33/2 43/5/2 100/8/2 105/34/2
f 35/35/6 40/36/6 93/37/6 96/38/6
f 65/26/2 64/39/2 113/40/2 116/27/2
f 76/41/5 90/42/5 92/43/5 77/44/5
f 73/45/5 98/46/5 119/47/5 114/48/5
f 59/49/2 56/33/2 105/34/2 108/50/2
f 50/51/2 59/49/2 108/50/2 85/52/2
f 62/53/6 51/54/6 88/55/6 111/56/6
f 92/43/1 98/46/1 73/45/1 77/44/1
f 69/57/6 68/58/6 117/59/6 120/60/6
f 64/39/2 71/61/2 74/62/2 113/40/2
f 25/63/2 30/17/2 75/20/2 78/64/2
f 27/65/2 42/66/2 79/67/2 82/68/2
f 26/69/4 72/9/4 1/12/4 10/70/4
f 28/71/5 32/72/5 12/73/5 11/74/5
f 49/75/1 29/76/1 9/77/1 6/78/1
f 32/72/1 44/29/1 5/32/1 12/73/1
f 45/79/1 39/80/1 15/81/1 3/82/1
f 53/83/4 33/84/4 14/85/4 8/86/4
f 36/87/4 48/88/4 4/89/4 16/90/4
f 40/36/6 46/91/6 101/92/6 93/37/6
f 34/93/6 54/94/6 97/95/6 91/96/6
f 31/6/2 27/65/2 82/68/2 84/7/2
f 39/80/5 36/87/5 16/90/5 15/81/5
f 41/97/4 28/71/4 11/74/4 2/98/4
f 55/30/1 60/99/1 18/100/1 17/31/1
f 61/101/1 58/102/1 19/103/1 20/104/1
f 48/105/5 67/106/5 23/107/5 4/108/5
f 58/102/5 45/79/5 3/82/5 19/103/5
f 52/109/3 61/101/3 20/104/3 7/110/3
f 70/111/3 53/83/3 8/86/3 24/112/3
f 67/106/4 70/111/4 24/112/4 23/107/4
f 66/113/5 41/114/5 2/115/5 22/116/5
f 60/99/3 49/117/3 6/118/3 18/100/3
f 57/119/6 62/53/6 111/56/6 110/120/6
f 119/47/1 118/16/1 115/15/1 114/48/1
f 2/121/2 11/122/2 12/123/2 5/124/2
f 3/125/6 15/126/6 16/127/6 4/128/6
f 7/129/6 3/125/6 4/128/6 8/130/6
f 1/131/2 2/121/2 5/124/2 6/132/2
f 10/133/2 1/131/2 6/132/2 9/134/2
f 13/135/6 7/129/6 8/130/6 14/136/6
f 3/125/6 7/129/6 20/137/6 19/138/6
f 6/132/2 5/124/2 17/139/2 18/140/2
f 2/121/2 1/131/2 21/141/2 22/142/2
f 8/130/6 4/128/6 23/143/6 24/144/6
f 107/145/4 106/146/4 109/147/4 112/148/4
f 68/58/6 47/149/6 104/150/6 117/59/6
f 33/84/3 37/1/3 13/4/3 14/85/3
f 99/21/3 102/24/3 109/147/3 106/146/3
f 76/41/4 86/151/4 87/152/4 90/42/4
f 46/91/6 57/119/6 110/120/6 101/92/6
f 87/153/5 86/154/5 107/145/5 112/148/5
f 63/10/4 66/113/4 22/116/4 21/11/4
f 103/155/1 95/156/1 81/157/1 80/158/1
f 51/159/6 38/160/6 89/161/6 88/162/6
f 47/163/6 35/35/6 96/38/6 104/164/6
f 94/23/3 83/22/3 81/157/3 95/156/3
f 38/160/6 34/93/6 91/96/6 89/161/6
f 54/94/6 69/57/6 120/60/6 97/95/6
f 30/17/7 25/63/7 26/69/7 29/76/7
f 42/66/8 27/65/8 28/71/8 41/97/8
f 27/65/9 31/6/9 32/72/9 28/71/9
f 50/18/10 30/17/10 29/76/10 49/75/10
f 52/2/11 37/1/11 38/160/11 51/159/11
f 34/93/12 38/160/12 37/1/12 33/84/12
f 40/36/13 35/35/13 36/87/13 39/80/13
f 54/94/14 34/93/14 33/84/14 53/83/14
f 31/6/10 43/5/10 44/29/10 32/72/10
f 39/80/11 45/79/11 46/91/11 40/36/11
f 35/35/14 47/163/14 48/88/14 36/87/14
f 25/63/8 71/61/8 72/9/8 26/69/8
f 56/33/10 59/49/10 60/99/10 55/30/10
f 58/102/15 61/101/15 62/53/15 57/119/15
f 45/79/16 58/102/16 57/119/16 46/91/16
f 55/30/17 44/29/17 43/5/17 56/33/17
f 49/117/7 60/99/7 59/49/7 50/51/7
f 61/101/12 52/109/12 51/54/12 62/53/12
f 64/39/8 65/26/8 66/113/8 63/10/8
f 68/58/14 69/57/14 70/111/14 67/106/14
f 41/114/17 66/113/17 65/26/17 42/25/17
f 67/106/16 48/105/16 47/149/16 68/58/16
f 53/83/12 70/111/12 69/57/12 54/94/12
f 63/10/7 72/9/7 71/61/7 64/39/7
f 29/76/3 26/69/3 10/70/3 9/77/3
f 76/41/17 77/44/17 78/64/17 75/20/17
f 80/158/10 81/157/10 82/68/10 79/67/10
f 81/157/7 83/22/7 84/7/7 82/68/7
f 86/151/8 76/41/8 75/20/8 85/19/8
f 88/162/14 89/161/14 90/42/14 87/152/14
f 92/43/16 90/42/16 89/161/16 91/96/16
f 94/23/12 95/156/12 96/38/12 93/37/12
f 98/46/11 92/43/11 91/96/11 97/95/11
f 83/22/8 99/21/8 100/8/8 84/7/8
f 93/37/14 101/92/14 102/24/14 94/23/14
f 95/156/11 103/155/11 104/164/11 96/38/11
f 77/44/10 73/45/10 74/62/10 78/64/10
f 106/146/8 107/145/8 108/50/8 105/34/8
f 110/120/14 111/56/14 112/148/14 109/147/14
f 101/92/12 110/120/12 109/147/12 102/24/12
f 105/34/7 100/8/7 99/21/7 106/146/7
f 85/52/17 108/50/17 107/145/17 86/154/17
f 111/56/16 88/55/16 87/153/16 112/148/16
f 114/48/10 115/15/10 116/27/10 113/40/10
f 118/16/11 119/47/11 120/60/11 117/59/11
f 79/28/7 116/27/7 115/15/7 80/14/7
f 117/59/12 104/150/12 103/13/12 118/16/12
f 97/95/16 120/60/16 119/47/16 98/46/16
f 113/40/17 74/62/17 73/45/17 114/48/17
f 71/61/2 25/63/2 78/64/2 74/62/2
