# Blender v2.82 (sub 7) OBJ File: 'Holy Mantle.blend'
# www.blender.org
mtllib Holy Mantle.mtl
o Cube
v 1.000000 5.017089 1.000000
v 1.000000 5.017089 -1.000000
v -1.000000 5.017089 -1.000000
v -1.000000 5.017089 1.000000
v 0.000000 6.001278 -1.000000
v 0.000000 4.032900 1.000000
v 0.000000 4.032900 -1.000000
v 0.000000 6.001278 1.000000
v 0.000000 5.017089 -1.000000
v 0.000000 5.017089 1.000000
v 0.000000 6.864816 -1.000000
v 0.000000 6.864816 1.000000
v -1.914523 5.017089 1.000000
v -1.914523 5.017089 -1.000000
v 1.914523 5.017089 1.000000
v 1.914523 5.017089 -1.000000
v 0.000000 1.186260 1.000000
v 0.000000 1.186260 -1.000000
v -0.938365 0.233300 0.365200
v -0.935756 7.660044 0.366965
v -0.938365 0.233300 -0.365200
v -0.935756 7.660044 -0.366965
v 0.937371 0.233300 0.363867
v 0.935756 7.660044 0.366965
v 0.938365 0.233300 -0.365200
v 0.935756 7.660044 -0.366965
v 0.937926 4.092674 0.365057
v 1.000000 4.032900 0.245402
v 1.000000 4.032900 -0.245402
v 0.937926 4.092674 -0.365057
v -0.937926 4.092719 -0.365072
v -1.000000 4.032900 -0.245402
v -1.000000 4.032900 0.245402
v -0.937926 4.092674 0.365057
v -0.935683 5.941461 -0.365830
v -1.000000 6.001278 -0.245402
v 1.000000 6.001278 -0.245402
v 0.935683 5.941504 -0.365815
v 0.935683 5.941504 0.365815
v 1.000000 6.001278 0.245402
v -0.935683 5.941506 0.365815
v -1.000000 6.001278 0.245402
v -2.934847 5.942205 -0.364122
v -3.000075 6.000996 -0.245402
v -2.934845 4.091975 -0.364123
v -3.000000 4.032900 -0.245402
v -2.934904 4.091922 0.364087
v -3.000000 4.032900 0.245402
v -3.000545 5.999220 0.245403
v -2.935487 5.940056 0.364087
v 3.000000 6.001278 -0.245402
v 2.934903 5.942255 -0.364087
v 3.000000 6.001278 0.245402
v 2.934903 5.942255 0.364087
v 2.934903 4.091923 0.364087
v 3.000000 4.032900 0.245402
v 3.000000 4.032900 -0.245402
v 2.934903 4.091923 -0.364087
v -3.176501 5.019756 -0.364958
v -3.180217 5.017089 0.363891
v 3.180216 5.017089 0.363892
v 3.180216 5.017089 -0.363892
v 0.000000 0.072925 -0.365104
v 0.000000 0.000000 -0.245402
v 0.000000 7.827288 -0.366964
v 0.000000 7.893344 -0.245402
v 0.000000 0.000000 0.245402
v 0.000000 0.072925 0.365104
v 0.000000 7.827288 0.366964
v 0.000000 7.893344 0.245402
v -0.935698 6.942007 0.367017
v -1.000000 6.947311 0.245402
v -1.000000 6.947311 -0.245402
v -0.935698 6.942007 -0.367017
v 0.935698 6.942007 -0.367017
v 1.000000 6.947311 -0.245402
v 1.000000 6.947311 0.245402
v 0.935698 6.942007 0.367017
v -2.000000 6.001278 -0.245402
v -1.994821 5.941644 -0.364508
v -2.000000 6.001278 0.245402
v -1.994825 5.941690 0.364476
v -1.994821 4.092536 -0.364509
v -2.000000 4.032900 -0.245402
v -2.000000 4.032900 0.245402
v -1.994825 4.092489 0.364476
v 1.994825 5.941689 -0.364477
v 2.000000 6.001278 -0.245402
v 1.994825 4.092490 -0.364477
v 2.000000 4.032900 -0.245402
v 2.000000 4.032900 0.245402
v 1.994825 4.092490 0.364477
v 1.994825 5.941689 0.364477
v 2.000000 6.001278 0.245402
v -1.000000 1.015225 -0.245402
v -0.938031 1.025824 -0.365439
v 1.000000 1.015225 -0.245402
v 0.938031 1.025824 -0.365439
v 1.000000 1.015225 0.245402
v 0.938031 1.025824 0.365439
v -1.000000 1.015225 0.245402
v -0.938031 1.025824 0.365439
v -1.000000 0.233300 0.245402
v -0.766700 0.000000 0.245402
v -0.766700 7.893344 0.245402
v -1.000000 7.660044 0.245402
v -0.766700 0.000000 -0.245402
v -1.000000 0.233300 -0.245402
v -1.000000 7.660044 -0.245402
v -0.766700 7.893344 -0.245402
v 0.765768 0.000000 0.244313
v 0.999283 0.233300 0.244308
v 1.000000 7.660044 0.245402
v 0.766700 7.893344 0.245402
v 0.999901 0.233300 -0.245402
v 0.766571 0.000000 -0.245402
v 0.766700 7.893344 -0.245402
v 1.000000 7.660044 -0.245402
v -3.198329 4.793825 -0.246248
v -3.198049 5.245271 -0.246247
v -3.200480 5.242986 0.245403
v -3.200519 4.791870 0.245403
v 3.200867 4.791560 0.245402
v 3.200867 5.242619 0.245402
v 3.200867 5.242619 -0.245402
v 3.200867 4.791560 -0.245402
v -0.747725 0.816222 0.239971
v -0.745646 7.118313 0.241131
v -0.747725 0.816222 -0.239971
v -0.745646 7.118313 -0.241131
v 0.746933 0.816222 0.239095
v 0.745646 7.118313 0.241131
v 0.747725 0.816222 -0.239971
v 0.745646 7.118313 -0.241131
v 0.747375 4.330818 0.239877
v 0.747375 4.330818 -0.239877
v -0.747375 4.330851 -0.239887
v -0.747375 4.330818 0.239877
v -0.745588 5.703328 -0.240385
v 0.745588 5.703361 -0.240375
v 0.745588 5.703361 0.240375
v -0.745588 5.703362 0.240375
v -2.338598 5.703881 -0.239263
v -2.338597 4.330298 -0.239263
v -2.338643 4.330259 0.239240
v -2.339108 5.702285 0.239239
v 2.338643 5.703918 -0.239240
v 2.338643 5.703918 0.239240
v 2.338643 4.330261 0.239240
v 2.338643 4.330261 -0.239240
vt 0.870719 0.118624
vt 0.933570 0.185843
vt 0.922391 0.219026
vt 0.859621 0.130871
vt 0.993753 0.761043
vt 0.993753 0.827528
vt 0.951192 0.827528
vt 0.951192 0.761043
vt 0.761869 0.238733
vt 0.877521 0.297136
vt 0.099346 0.817824
vt 0.134654 0.745851
vt 0.248691 0.804956
vt 0.318908 0.912779
vt 0.250752 0.955000
vt 0.248865 0.805099
vt 0.524283 0.720392
vt 0.643361 0.614677
vt 0.714859 0.731604
vt 0.605055 0.798311
vt 0.327435 0.927473
vt 0.256860 0.968960
vt 0.713466 0.903594
vt 0.765477 0.820350
vt 0.782021 0.821820
vt 0.738037 0.894702
vt 0.416112 0.620232
vt 0.515891 0.510139
vt 0.319590 0.727011
vt 0.134797 0.746026
vt 0.194730 0.632539
vt 0.631475 0.957822
vt 0.541763 0.910089
vt 0.305832 0.522405
vt 0.194616 0.632393
vt 0.115335 0.523603
vt 0.220378 0.449670
vt 0.951192 0.999979
vt 0.951192 0.917943
vt 0.993753 0.917943
vt 0.993753 0.999979
vt 0.031219 0.936713
vt 0.000179 0.936739
vt 0.000126 0.873492
vt 0.031166 0.873436
vt 0.765269 0.820389
vt 0.059177 0.439005
vt 0.105028 0.352564
vt 0.220442 0.449808
vt 0.631753 0.957843
vt 0.605243 0.798315
vt 0.715036 0.731571
vt 0.182682 0.292396
vt 0.104968 0.352343
vt 0.059030 0.438990
vt 0.951192 0.086736
vt 0.993753 0.086736
vt 0.993753 0.173452
vt 0.951192 0.173452
vt 0.182679 0.292569
vt 0.275998 0.333972
vt 0.000198 0.682560
vt 0.031238 0.682547
vt 0.031265 0.745790
vt 0.000225 0.745803
vt 0.399358 0.393529
vt 0.692406 0.129368
vt 0.399394 0.393601
vt 0.305916 0.522514
vt 0.951192 0.000021
vt 0.993753 0.000021
vt 0.000171 0.619317
vt 0.031211 0.619303
vt 0.031272 0.999956
vt 0.000232 0.999982
vt 0.115424 0.523767
vt 0.643497 0.614664
vt 0.524443 0.720429
vt 0.416233 0.620305
vt 0.515974 0.510172
vt 0.859571 0.130833
vt 0.761831 0.238688
vt 0.765672 0.077019
vt 0.000066 0.190864
vt 0.000246 0.000018
vt 0.031286 0.000047
vt 0.031106 0.190894
vt 0.922408 0.218875
vt 0.877498 0.297035
vt 0.161296 0.901783
vt 0.765734 0.077064
vt 0.425927 0.841938
vt 0.542001 0.910134
vt 0.319437 0.726898
vt 0.993753 0.522106
vt 0.951192 0.522106
vt 0.951192 0.435390
vt 0.993753 0.435390
vt 0.425726 0.841848
vt 0.712866 0.903630
vt 0.781823 0.821867
vt 0.737538 0.894748
vt 0.692348 0.129348
vt 0.031129 0.428457
vt 0.000089 0.428470
vt 0.318692 0.912649
vt 0.993753 0.604142
vt 0.951192 0.604142
vt 0.275986 0.333850
vt 0.099509 0.818017
vt 0.682841 0.115164
vt 0.758930 0.063251
vt 0.250528 0.954843
vt 0.161099 0.901602
vt 0.951192 0.348674
vt 0.993753 0.348674
vt 0.042602 0.438712
vt 0.081156 0.363217
vt 0.042463 0.438692
vt 0.081101 0.362957
vt 0.000019 0.240316
vt 0.030990 0.240345
vt 0.150802 0.913370
vt 0.089607 0.850315
vt 0.993753 0.694558
vt 0.951192 0.694558
vt 0.327213 0.927345
vt 0.256630 0.968803
vt 0.426618 0.861959
vt 0.119193 0.738812
vt 0.174518 0.633473
vt 0.000038 0.309664
vt 0.000018 0.261183
vt 0.030989 0.261221
vt 0.031078 0.309650
vt 0.936810 0.224449
vt 0.892594 0.305262
vt 0.084855 0.813119
vt 0.085015 0.813317
vt 0.119332 0.738991
vt 0.426830 0.862046
vt 0.031286 0.795436
vt 0.000192 0.795534
vt 0.633412 0.974281
vt 0.534535 0.924470
vt 0.174630 0.633625
vt 0.101827 0.532366
vt 0.729190 0.723992
vt 0.179578 0.276254
vt 0.282157 0.318968
vt 0.993753 0.241506
vt 0.951192 0.241506
vt 0.101738 0.532201
vt 0.282152 0.318849
vt 0.396263 0.373097
vt 0.664135 0.615732
vt 0.729359 0.723958
vt 0.534782 0.924513
vt 0.705252 0.928392
vt 0.633680 0.974302
vt 0.993753 0.280620
vt 0.951192 0.280620
vt 0.111399 0.327018
vt 0.179592 0.276079
vt 0.150602 0.913183
vt 0.089435 0.850115
vt 0.870671 0.118584
vt 0.933549 0.185661
vt 0.031108 0.379005
vt 0.000068 0.379018
vt 0.993753 0.665947
vt 0.951192 0.665947
vt 0.219364 0.967873
vt 0.219589 0.968042
vt 0.664003 0.615750
vt 0.396292 0.373171
vt 0.682779 0.115147
vt 0.892575 0.305152
vt 0.797600 0.062634
vt 0.936828 0.224301
vt 0.111432 0.327275
vt 0.031262 0.823966
vt 0.000168 0.824085
vt 0.797667 0.062688
vt 0.951192 0.856138
vt 0.993753 0.856138
vt 0.704650 0.928491
vt 0.000059 0.358152
vt 0.031099 0.358139
vt 0.758858 0.063202
vt 0.075446 0.193327
vt 0.264293 0.121459
vt 0.297172 0.254906
vt 0.096561 0.278996
vt 0.499949 0.177912
vt 0.423737 0.219903
vt 0.392550 0.093509
vt 0.479548 0.095229
vt 0.479589 0.095336
vt 0.392598 0.093587
vt 0.425566 0.318539
vt 0.348581 0.340441
vt 0.423742 0.219980
vt 0.348341 0.005392
vt 0.269992 0.021794
vt 0.096572 0.279026
vt 0.075405 0.193375
vt 0.264243 0.121432
vt 0.297176 0.254873
vt 0.270073 0.021829
vt 0.348432 0.005464
vt 0.348623 0.340382
vt 0.499960 0.178017
vt 0.425519 0.318500
vn -0.0597 -0.6355 -0.7698
vn 0.0000 1.0000 0.0000
vn -0.5603 -0.0000 -0.8283
vn 0.5603 0.0000 -0.8283
vn 0.5603 0.0000 0.8283
vn -0.0002 -0.5663 -0.8242
vn 0.8841 -0.0000 0.4673
vn 0.8080 -0.2140 0.5489
vn -0.3047 -0.3096 -0.9007
vn -0.5607 -0.0005 0.8280
vn -0.0000 0.5664 -0.8241
vn 0.0005 0.5661 -0.8244
vn -1.0000 0.0000 0.0000
vn -0.0012 1.0000 0.0018
vn -0.0000 -0.5664 -0.8241
vn -0.4459 0.1180 0.8873
vn 0.4459 0.1180 0.8873
vn 0.0000 -0.5664 0.8241
vn 0.4459 -0.1180 -0.8873
vn 0.4459 0.1180 -0.8873
vn 0.4459 -0.1180 0.8873
vn 0.0000 -1.0000 0.0000
vn -0.4459 -0.1180 0.8873
vn 0.5605 0.0001 -0.8282
vn -0.0002 -0.5663 0.8242
vn -0.0005 0.5661 0.8244
vn 0.3047 -0.3096 0.9007
vn -0.0843 -0.4936 0.8656
vn 1.0000 0.0000 0.0000
vn 0.5601 -0.0021 0.8284
vn 0.0977 0.5469 0.8315
vn 0.0843 -0.4936 -0.8656
vn 0.0005 0.5661 0.8244
vn 0.5607 -0.0005 -0.8280
vn 0.3047 0.3096 -0.9007
vn -0.0005 0.5661 -0.8244
vn -0.8083 -0.2111 -0.5496
vn -0.3047 0.3096 -0.9007
vn -0.5605 0.0001 0.8282
vn -0.3047 0.3096 0.9007
vn -0.5605 0.0001 -0.8282
vn -0.5607 -0.0005 -0.8280
vn 0.3047 -0.3096 -0.9007
vn 0.3047 0.3096 0.9007
vn 0.5605 0.0001 0.8282
vn 0.0002 -0.5663 -0.8242
vn 0.5607 -0.0005 0.8280
vn -0.5603 -0.0000 0.8283
vn -0.0977 0.5469 0.8315
vn 0.8890 0.0001 -0.4578
vn 0.0856 -0.4936 0.8655
vn -0.0977 0.5469 -0.8315
vn -0.3047 -0.3096 0.9007
vn -0.0013 0.5664 0.8242
vn -0.4462 0.1177 -0.8872
vn -0.8085 0.2140 0.5481
vn 0.0000 0.5664 0.8241
vn 0.8080 0.2140 -0.5489
vn -0.4466 -0.1171 -0.8870
vn 1.0000 -0.0005 0.0006
vn -0.0639 0.6506 0.7567
vn 0.0977 0.5469 -0.8315
vn -0.0843 -0.4936 -0.8656
vn 0.0002 -0.5663 0.8242
vn -0.8841 -0.0000 -0.4673
vn -0.8831 -0.0003 -0.4692
vn 0.8831 -0.0003 -0.4692
vn -0.8889 0.0001 -0.4581
vn 0.8841 -0.0000 -0.4673
vn -0.8841 -0.0000 0.4673
vn 0.8831 -0.0003 0.4692
vn -0.9672 -0.2538 -0.0027
vn 0.0000 0.8952 -0.4457
vn -0.0002 0.8950 0.4461
vn 0.0002 -0.8948 -0.4466
vn 0.0002 -0.8949 0.4464
vn 0.9667 -0.2559 0.0000
vn -0.0002 0.8949 -0.4464
vn 0.0000 -0.8944 -0.4472
vn 0.0000 -0.8944 0.4472
vn 0.0002 0.8950 0.4461
vn 0.8080 0.2140 0.5489
vn 0.9667 0.2559 0.0000
vn 0.8080 -0.2140 -0.5489
vn 0.0639 0.6506 -0.7567
vn 0.0609 -0.6355 0.7697
vn -0.8831 -0.0003 0.4692
vn -0.0639 0.6506 -0.7567
vn 0.0639 0.6506 0.7567
vn -0.0002 0.8949 -0.4463
vn -0.0018 0.8944 0.4473
vn -0.0000 -0.8943 -0.4474
vn 0.0002 0.8950 -0.4461
vn -0.0002 -0.8948 -0.4464
vn -0.0002 -0.8948 0.4464
vn -0.8881 0.0000 0.4596
vn -0.8881 0.0000 -0.4596
vn 0.8881 0.0000 -0.4596
vn 0.8881 0.0000 0.4596
vn -0.0597 -0.6355 0.7698
vn 0.8883 -0.0016 0.4593
vn -0.8088 -0.2140 0.5477
vn -0.9671 0.2545 -0.0018
vn 0.0597 -0.6355 -0.7698
vn -0.0002 0.8949 0.4464
vn -0.8081 0.2122 -0.5495
vn -0.6645 -0.6645 0.3419
vn -0.6624 0.6624 0.3500
vn -0.6645 -0.6645 -0.3419
vn -0.6624 0.6624 -0.3501
vn 0.6637 -0.6643 0.3437
vn 0.6624 0.6624 0.3501
vn 0.6646 -0.6647 -0.3414
vn 0.6624 0.6624 -0.3500
vn -0.9837 0.0006 -0.1797
vn -0.9857 0.0001 0.1687
vn 0.9851 0.0000 0.1717
vn 0.9851 0.0000 -0.1717
vn -0.7071 -0.7071 0.0000
vn -0.7071 0.7071 0.0000
vn 0.7069 -0.7073 0.0010
vn 0.7071 0.7071 0.0000
vn -1.0000 0.0004 -0.0047
vn -0.8889 0.0001 0.4581
vn 0.0000 0.0000 -1.0000
vn -0.0000 -0.0005 1.0000
vn 0.0006 -0.0002 -1.0000
vn 0.0003 -0.0001 1.0000
vn -0.0005 -0.0002 -1.0000
vn 0.0003 -1.0000 -0.0001
vn -0.0000 -0.0004 1.0000
vn 0.0000 -0.0004 -1.0000
vn -0.0006 -0.0002 1.0000
vn 0.0006 -0.0002 1.0000
vn -1.0000 -0.0002 -0.0006
vn -0.0004 -1.0000 -0.0000
vn 0.0000 -0.0005 -1.0000
vn -0.0003 1.0000 0.0000
vn -1.0000 0.0001 -0.0000
vn -0.0002 1.0000 0.0016
vn 1.0000 -0.0000 0.0008
usemtl Material
s off
f 64/1/1 107/2/1 21/3/1 63/4/1
f 66/5/2 110/6/2 105/7/2 70/8/2
f 18/9/3 21/3/3 96/10/3
f 26/11/4 75/12/4 11/13/4
f 78/14/5 24/15/5 12/16/5
f 3/17/6 31/18/6 83/19/6 14/20/6
f 24/15/7 78/14/7 77/21/7 113/22/7
f 61/23/8 55/24/8 56/25/8 123/26/8
f 31/18/9 3/17/9 9/27/9 7/28/9
f 8/29/10 12/16/10 71/30/10 41/31/10
f 14/20/11 43/32/11 80/33/11
f 2/34/12 38/35/12 87/36/12 16/37/12
f 42/38/13 72/39/13 73/40/13 36/41/13
f 81/42/14 79/43/14 44/44/14 49/45/14
f 83/19/15 45/46/15 14/20/15
f 50/47/16 60/48/16 13/49/16
f 54/50/17 15/51/17 61/23/17
f 15/51/18 92/52/18 55/24/18
f 58/53/19 16/37/19 62/54/19
f 52/55/20 62/54/20 16/37/20
f 55/24/21 61/23/21 15/51/21
f 91/56/22 90/57/22 57/58/22 56/59/22
f 47/60/23 13/49/23 60/48/23
f 86/61/18 13/49/18 47/60/18
f 84/62/22 85/63/22 48/64/22 46/65/22
f 18/9/24 7/28/24 30/66/24 98/67/24
f 34/68/25 4/69/25 13/49/25 86/61/25
f 28/70/22 29/71/22 90/57/22 91/56/22
f 32/72/22 33/73/22 85/63/22 84/62/22
f 42/74/2 36/75/2 79/43/2 81/42/2
f 4/69/26 41/31/26 82/76/26 13/49/26
f 27/77/27 1/78/27 10/79/27 6/80/27
f 68/81/28 17/82/28 19/83/28
f 97/84/29 29/85/29 28/86/29 99/87/29
f 23/88/30 100/89/30 17/82/30
f 12/16/31 24/15/31 69/90/31
f 63/4/32 18/9/32 25/91/32
f 39/92/33 1/78/33 15/51/33 93/93/33
f 5/94/34 11/13/34 75/12/34 38/35/34
f 9/27/35 5/94/35 38/35/35 2/34/35
f 37/95/2 40/96/2 94/97/2 88/98/2
f 35/99/36 3/17/36 14/20/36 80/33/36
f 59/100/37 45/46/37 46/101/37 119/102/37
f 3/17/38 35/99/38 5/94/38 9/27/38
f 17/82/39 6/80/39 34/68/39 102/103/39
f 10/79/40 8/29/40 41/31/40 4/69/40
f 96/10/41 31/18/41 7/28/41 18/9/41
f 101/104/13 33/73/13 32/72/13 95/105/13
f 35/99/42 74/106/42 11/13/42 5/94/42
f 7/28/43 9/27/43 2/34/43 30/66/43
f 1/78/44 39/92/44 8/29/44 10/79/44
f 37/95/29 76/107/29 77/108/29 40/96/29
f 100/89/45 27/77/45 6/80/45 17/82/45
f 30/66/46 2/34/46 16/37/46 89/109/46
f 39/92/47 78/14/47 12/16/47 8/29/47
f 25/91/4 18/9/4 98/67/4
f 19/83/48 17/82/48 102/103/48
f 20/110/49 12/16/49 69/90/49
f 97/111/50 115/112/50 25/91/50 98/67/50
f 23/88/51 17/82/51 68/81/51
f 11/13/52 22/113/52 65/114/52
f 6/80/53 10/79/53 4/69/53 34/68/53
f 88/98/2 94/97/2 53/115/2 51/116/2
f 13/49/54 82/76/54 50/47/54
f 59/100/55 43/32/55 14/20/55
f 60/48/56 50/47/56 49/117/56 121/118/56
f 93/93/57 15/51/57 54/50/57
f 51/119/58 125/120/58 62/54/58 52/55/58
f 14/20/59 45/46/59 59/100/59
f 16/37/11 87/36/11 52/55/11
f 89/109/15 16/37/15 58/53/15
f 115/121/60 97/84/60 99/87/60 112/122/60
f 70/123/61 105/124/61 20/110/61 69/90/61
f 11/13/62 65/114/62 26/11/62
f 21/3/63 18/9/63 63/4/63
f 12/16/48 20/110/48 71/30/48
f 117/125/2 66/5/2 70/8/2 114/126/2
f 74/106/3 22/113/3 11/13/3
f 1/78/64 27/77/64 92/52/64 15/51/64
f 22/113/65 74/106/65 73/127/65 109/128/65
f 74/106/66 35/99/66 36/129/66 73/127/66
f 76/130/67 37/131/67 38/35/67 75/12/67
f 64/132/22 116/133/22 111/134/22 67/135/22
f 96/10/68 21/3/68 108/136/68 95/137/68
f 26/11/69 118/138/69 76/130/69 75/12/69
f 71/30/70 20/110/70 106/139/70 72/140/70
f 78/14/71 39/92/71 40/141/71 77/21/71
f 48/64/72 122/142/72 119/143/72 46/65/72
f 80/33/73 43/32/73 44/144/73 79/145/73
f 82/76/74 41/31/74 42/146/74 81/147/74
f 84/148/75 46/101/75 45/46/75 83/19/75
f 86/61/76 47/60/76 48/149/76 85/150/76
f 57/58/77 126/151/77 123/152/77 56/59/77
f 88/153/78 51/119/78 52/55/78 87/36/78
f 90/154/79 29/155/79 30/66/79 89/109/79
f 92/52/80 27/77/80 28/156/80 91/157/80
f 94/158/81 40/141/81 39/92/81 93/93/81
f 54/50/82 61/23/82 124/159/82 53/160/82
f 125/161/83 51/116/83 53/115/83 124/162/83
f 62/54/84 126/163/84 57/164/84 58/53/84
f 66/165/85 117/166/85 26/11/85 65/114/85
f 67/167/86 111/168/86 23/88/86 68/81/86
f 103/169/13 101/104/13 95/105/13 108/170/13
f 76/107/29 118/171/29 113/172/29 77/108/29
f 41/31/87 71/30/87 72/140/87 42/146/87
f 22/113/88 110/173/88 66/165/88 65/114/88
f 24/15/89 114/174/89 70/123/89 69/90/89
f 35/99/90 80/33/90 79/145/90 36/129/90
f 50/47/91 82/76/91 81/147/91 49/117/91
f 32/175/92 84/148/92 83/19/92 31/18/92
f 34/68/80 86/61/80 85/150/80 33/176/80
f 37/131/93 88/153/93 87/36/93 38/35/93
f 57/164/94 90/154/94 89/109/94 58/53/94
f 55/24/95 92/52/95 91/157/95 56/25/95
f 102/103/96 34/68/96 33/176/96 101/177/96
f 31/18/97 96/10/97 95/137/97 32/175/97
f 29/155/98 97/111/98 98/67/98 30/66/98
f 27/77/99 100/89/99 99/178/99 28/156/99
f 19/83/100 104/179/100 67/167/100 68/81/100
f 100/89/101 23/88/101 112/180/101 99/178/101
f 47/60/102 60/48/102 122/181/102 48/149/102
f 121/182/103 49/45/103 44/44/103 120/183/103
f 25/91/104 116/184/104 64/1/104 63/4/104
f 53/160/105 94/158/105 93/93/105 54/50/105
f 72/39/13 106/185/13 109/186/13 73/40/13
f 43/32/106 59/100/106 120/187/106 44/144/106
f 107/188/22 64/132/22 67/135/22 104/189/22
f 103/190/107 104/179/107 19/83/107
f 105/124/108 106/139/108 20/110/108
f 107/2/109 108/136/109 21/3/109
f 109/128/110 110/173/110 22/113/110
f 111/168/111 112/180/111 23/88/111
f 113/22/112 114/174/112 24/15/112
f 115/112/113 116/184/113 25/91/113
f 117/166/114 118/138/114 26/11/114
f 119/102/115 120/187/115 59/100/115
f 121/118/116 122/181/116 60/48/116
f 123/26/117 124/159/117 61/23/117
f 125/120/118 126/163/118 62/54/118
f 107/188/119 104/189/119 103/169/119 108/170/119
f 109/186/120 106/185/120 105/7/120 110/6/120
f 115/121/121 112/122/121 111/134/121 116/133/121
f 113/172/122 118/171/122 117/125/122 114/126/122
f 119/143/123 122/142/123 121/182/123 120/183/123
f 123/152/29 126/151/29 125/161/29 124/162/29
f 19/83/124 102/103/124 101/177/124 103/190/124
f 129/191/125 137/192/125 136/193/125 133/194/125
f 128/195/126 142/196/126 141/197/126 132/198/126
f 128/195/13 130/199/13 139/200/13 142/196/13
f 147/201/127 150/202/127 136/193/127 140/203/127
f 150/202/29 147/201/29 148/204/29 149/205/29
f 127/206/128 131/207/128 135/208/128 138/209/128
f 139/200/129 137/192/129 144/210/129 143/211/129
f 137/192/130 138/209/130 145/212/130 144/210/130
f 135/208/131 141/197/131 142/196/131 138/209/131
f 133/194/22 131/207/22 127/206/22 129/191/22
f 132/198/2 134/213/2 130/199/2 128/195/2
f 137/192/132 139/200/132 140/203/132 136/193/132
f 142/196/133 146/214/133 145/212/133 138/209/133
f 135/208/134 149/205/134 148/204/134 141/197/134
f 134/213/29 132/198/29 141/197/29 140/203/29
f 145/212/135 146/214/135 143/211/135 144/210/135
f 135/208/136 136/193/136 150/202/136 149/205/136
f 139/200/137 130/199/137 134/213/137 140/203/137
f 148/204/138 147/201/138 140/203/138 141/197/138
f 138/209/139 137/192/139 129/191/139 127/206/139
f 142/196/140 139/200/140 143/211/140 146/214/140
f 136/193/141 135/208/141 131/207/141 133/194/141
